# xmcd
#
# Track frame offsets:
#	150
#	20524
#	34850
#	47746
#	64587
#	80405
#	98893
#	112469
#	126837
#	141339
#	158968
#	178186
#	192448
#	205840
#	225123
#	241628
#	267354
#
# Disc length: 3573 seconds
#
# Revision: 1
# Processed by: cddbd v1.5.1PL2 Copyright (c) Steve Scherf et al.
# Submitted via: audiograbber 1.83.01
#
DISCID=ed0df311
DTITLE=Various Artist - Sc8959
DYEAR=2005
DGENRE=Country
TTITLE0=Strait, George - Seashores Of Old Mexico, The
TTITLE1=McBride, Martina and Parton, Dolly - I Stil Miss Someone
TTITLE2=Shelton, Blake - Nobody But Me
TTITLE3=Turner, Josh - Your Man
TTITLE4=Underwood, Carrie - Before He Cheats
TTITLE5=Vassar, Phil - Last Day Of My Life
TTITLE6=Nichols, Joe - Size Matters (Someday)
TTITLE7=Trick Pony - Ain't Wastin' Good Whiskey On You
TTITLE8=Keith, Toby - Get Drunk And Be Somebody
TTITLE9=Bentley, Dierks - Settle For A Slowdown
TTITLE10=Lawrence, Tracy - If I Don't Make It Back
TTITLE11=Johnson, Jamey - Dollar, The
TTITLE12=Phoenix, Joaquin and Witherspoon, Reese - Jackson
TTITLE13=Sugarland - Just Might (Make Me Believe)
TTITLE14=Big and Rich - Never Mind Me (Duet Version)
TTITLE15=McBride, Martina and Parton, Dolly - I Stil Miss Someone (Duet Version)
TTITLE16=Data Track - Data Track
EXTD=
EXTT0=
EXTT1=
EXTT2=
EXTT3=
EXTT4=
EXTT5=
EXTT6=
EXTT7=
EXTT8=
EXTT9=
EXTT10=
EXTT11=
EXTT12=
EXTT13=
EXTT14=
EXTT15=
EXTT16=
PLAYORDER=
